<svg width="142" height="124" viewBox="0 0 142 124" fill="none" xmlns="http://www.w3.org/2000/svg">
<path d="M124.027 74.1436C124.351 73.582 124.625 73.0051 124.85 72.4182C124.457 72.6833 124.053 72.9365 123.636 73.1769L78.9945 98.9508L54.9945 112.807L54.3542 113.177C44.7883 118.7 32.5565 115.422 27.0337 105.856L19.0728 92.0678L10.3529 87.0333C8.22765 85.8063 6.27486 84.3954 4.50302 82.8322L20.1055 109.856C27.8374 123.249 44.962 127.837 58.3542 120.105L62.9945 117.426L86.9945 103.57L117.06 86.2114L124.027 74.1436Z" fill="white" style="mix-blend-mode:screen"/>
<path d="M17.8224 49.7175C17.4982 50.2791 17.2245 50.8559 17 51.4429C17.3924 51.1778 17.797 50.9246 18.2134 50.6842L62.8551 24.9103L86.8551 11.0539L87.4954 10.6842C97.0613 5.16132 109.293 8.43882 114.816 18.0047L122.777 31.7933L131.497 36.8278C133.622 38.0547 135.575 39.4657 137.347 41.0289L121.744 14.0047C114.012 0.612488 96.8876 -3.97603 83.4954 3.75596L78.8551 6.43507L54.8551 20.2915L24.7898 37.6497L17.8224 49.7175Z" fill="white" style="mix-blend-mode:screen"/>
<path fill-rule="evenodd" clip-rule="evenodd" d="M18.0061 73.039L62.6465 98.8121L54.6465 103.431L52.6526 102.28L52.6465 102.29L14.0043 79.9662C0.612072 72.2342 -3.97652 55.1096 3.75547 41.7174L19.7555 14.0047C27.448 0.680824 44.4375 -3.92893 57.7989 3.63855C57.8681 3.67772 57.9372 3.71721 58.0061 3.75703L62.6465 6.43614L54.6465 11.0549L54.0061 10.6852C54.0055 10.6849 54.0049 10.6845 54.0043 10.6842C53.9742 10.6668 53.9441 10.6496 53.914 10.6324C44.3619 5.18346 32.1908 8.47056 26.6856 18.0057L18.7248 31.7943L18.7211 31.7965L10.6838 45.7175C5.40168 54.8663 8.16937 66.4537 16.7892 72.2782C16.7892 72.2781 16.7892 72.278 16.7891 72.2779C17.1827 72.5439 17.5884 72.7978 18.0061 73.039Z" fill="white" style="mix-blend-mode:screen"/>
<path d="M137.891 41.8564C145.623 55.2486 141.034 72.3731 127.642 80.1051L58.3599 120.105L54.3599 113.177L123.642 73.1769C133.208 67.6541 136.485 55.4222 130.962 45.8564L114.962 18.1436C109.44 8.57773 97.2078 5.30022 87.6419 10.8231L83.6419 3.89487C97.0341 -3.83712 114.159 0.751387 121.891 14.1436L137.891 41.8564Z" fill="white"/>
<path fill-rule="evenodd" clip-rule="evenodd" d="M79 117.426L83.6404 120.105C83.7093 120.145 83.7784 120.184 83.8476 120.224C97.209 127.791 114.198 123.181 121.891 109.857L137.497 82.8272C135.724 84.3924 133.769 85.805 131.641 87.0333L122.925 92.0656L122.922 92.0677L114.961 105.856C109.456 115.392 97.2846 118.679 87.7324 113.23L87.6422 113.178L87.6404 113.177L87 112.807L79 117.426ZM117.064 37.7849L89 21.5718L88.9939 21.5823L87 20.4312L79 25.05L123.64 50.8231C124.058 51.0642 124.464 51.318 124.857 51.5839C124.632 50.9963 124.358 50.4187 124.034 49.8564L117.064 37.7849Z" fill="white" style="mix-blend-mode:screen"/>
</svg>
