<svg width="142" height="124" viewBox="0 0 142 124" fill="none" xmlns="http://www.w3.org/2000/svg">
<g filter="url(#filter0_d_44_4371)">
<path d="M84.3387 51.0349L73.5343 44.7296C71.8497 43.7465 69.7651 43.7576 68.0911 44.7588L57.6118 51.026C55.992 51.9947 55 53.7455 55 55.6355V68.3645C55 70.2545 55.992 72.0053 57.6118 72.974L68.0911 79.2412C69.7651 80.2424 71.8497 80.2535 73.5343 79.2704L84.3387 72.9651C85.9865 72.0035 87 70.2369 87 68.3263V55.6737C87 53.7631 85.9865 51.9965 84.3387 51.0349Z" fill="white" fill-opacity="0.01" shape-rendering="crispEdges"/>
</g>
<path fill-rule="evenodd" clip-rule="evenodd" d="M18.0061 73.039L62.6465 98.8121L54.6465 103.431L52.6526 102.28L52.6465 102.29L14.0043 79.9662C0.612072 72.2342 -3.97652 55.1096 3.75547 41.7174L19.7555 14.0047C27.448 0.680824 44.4375 -3.92893 57.7989 3.63855C57.8681 3.67772 57.9372 3.71721 58.0061 3.75703L62.6465 6.43614L54.6465 11.0549L54.0061 10.6852C54.0055 10.6849 54.0049 10.6845 54.0043 10.6842C53.9742 10.6668 53.9441 10.6496 53.914 10.6324C44.3619 5.18346 32.1908 8.47056 26.6856 18.0057L18.7248 31.7943L18.7211 31.7965L10.6838 45.7175C5.40168 54.8663 8.16937 66.4537 16.7892 72.2782C16.7892 72.2781 16.7892 72.278 16.7891 72.2779C17.1827 72.5439 17.5884 72.7978 18.0061 73.039Z" fill="url(#paint0_radial_44_4371)" style="mix-blend-mode:screen"/>
<path fill-rule="evenodd" clip-rule="evenodd" d="M17.8233 49.7175C17.4991 50.2791 17.2254 50.856 17.0009 51.4429C17.3933 51.1778 17.7978 50.9246 18.2143 50.6842L62.856 24.9103L86.856 11.0539L87.4963 10.6842C87.5129 10.6746 87.5295 10.6651 87.5461 10.6555L87.6428 10.8231C95.464 6.30751 105.067 7.67493 111.329 13.5523C112.665 14.8326 113.845 16.3213 114.817 18.0047L122.778 31.7933L122.877 31.8507L130.963 45.8564C136.247 55.0085 133.476 66.601 124.849 72.4234C124.849 72.4217 124.85 72.4199 124.85 72.4182C124.458 72.6833 124.054 72.9365 123.637 73.1769L78.9954 98.9508L54.9954 112.807L54.3551 113.177C44.7892 118.7 32.5574 115.422 27.0345 105.856L19.0737 92.0678L10.3537 87.0333C8.22853 85.8063 6.27574 84.3954 4.50391 82.8322L20.1063 109.856C27.8383 123.249 44.9629 127.837 58.3551 120.105L58.3593 120.103L58.3608 120.105L127.643 80.1051C141.035 72.3731 145.623 55.2486 137.892 41.8564L121.892 14.1436C120.488 11.7131 118.776 9.57252 116.832 7.74297C108.071 -0.625443 94.5192 -2.60813 83.4963 3.75596L78.856 6.43508L54.856 20.2915L24.7907 37.6497L17.8233 49.7175Z" fill="url(#paint1_radial_44_4371)" style="mix-blend-mode:screen"/>
<path fill-rule="evenodd" clip-rule="evenodd" d="M117.064 37.7849L89 21.5718L88.9939 21.5823L87 20.4312L79 25.0499L123.64 50.8231C124.058 51.0642 124.464 51.318 124.857 51.5839C124.632 50.9963 124.358 50.4187 124.034 49.8564L117.064 37.7849Z" fill="url(#paint2_radial_44_4371)" style="mix-blend-mode:screen"/>
<path d="M79 117.426L83.6404 120.105C83.7093 120.145 83.7784 120.184 83.8476 120.223C97.209 127.791 114.198 123.181 121.891 109.857L137.497 82.8271C135.724 84.3923 133.769 85.805 131.641 87.0333L122.925 92.0655L122.922 92.0677L114.961 105.856C109.456 115.391 97.2846 118.679 87.7324 113.23L87.6422 113.178L87.6404 113.177L87 112.807L79 117.426Z" fill="url(#paint3_radial_44_4371)" style="mix-blend-mode:screen"/>
<defs>

<radialGradient id="paint0_radial_44_4371" cx="0" cy="0" r="1" gradientUnits="userSpaceOnUse" gradientTransform="translate(-27.8535 51.8621) rotate(-12.704) scale(88.6708 105.985)">
<stop stop-color="white"/>
<stop offset="1"/>
</radialGradient>
<radialGradient id="paint1_radial_44_4371" cx="0" cy="0" r="1" gradientUnits="userSpaceOnUse" gradientTransform="translate(151.5 62) rotate(162.263) scale(142.787 106.233)">
<stop stop-color="white"/>
<stop offset="1"/>
</radialGradient>
<radialGradient id="paint2_radial_44_4371" cx="0" cy="0" r="1" gradientUnits="userSpaceOnUse" gradientTransform="translate(106 20) rotate(111.337) scale(34.3548 22.7222)">
<stop stop-color="white"/>
<stop offset="1"/>
</radialGradient>
<radialGradient id="paint3_radial_44_4371" cx="0" cy="0" r="1" gradientUnits="userSpaceOnUse" gradientTransform="translate(114.5 132.5) rotate(-102.426) scale(30.2076 28.7917)">
<stop stop-color="white"/>
<stop offset="1"/>
</radialGradient>
</defs>
</svg>
